<?xml version="1.0" encoding="UTF-8" standalone="no"?>
<svg
   xmlns:dc="http://purl.org/dc/elements/1.1/"
   xmlns:cc="http://creativecommons.org/ns#"
   xmlns:rdf="http://www.w3.org/1999/02/22-rdf-syntax-ns#"
   xmlns:svg="http://www.w3.org/2000/svg"
   xmlns="http://www.w3.org/2000/svg"
   xmlns:sodipodi="http://sodipodi.sourceforge.net/DTD/sodipodi-0.dtd"
   xmlns:inkscape="http://www.inkscape.org/namespaces/inkscape"
   id="svg8"
   version="1.1"
   viewBox="0 0 36.079185 33.196274"
   height="33.196274mm"
   width="36.079185mm"
   sodipodi:docname="crashbin.svg"
   inkscape:version="0.92.4 5da689c313, 2019-01-14">
  <sodipodi:namedview
     pagecolor="#ffffff"
     bordercolor="#666666"
     borderopacity="1"
     objecttolerance="10"
     gridtolerance="10"
     guidetolerance="10"
     inkscape:pageopacity="0"
     inkscape:pageshadow="2"
     inkscape:window-width="1920"
     inkscape:window-height="1080"
     id="namedview907"
     showgrid="false"
     inkscape:zoom="1.8809842"
     inkscape:cx="-30.703265"
     inkscape:cy="62.733116"
     inkscape:window-x="4480"
     inkscape:window-y="0"
     inkscape:window-maximized="0"
     inkscape:current-layer="svg8" />
  <defs
     id="defs2" />
  <metadata
     id="metadata5">
    <rdf:RDF>
      <cc:Work
         rdf:about="">
        <dc:format>image/svg+xml</dc:format>
        <dc:type
           rdf:resource="http://purl.org/dc/dcmitype/StillImage" />
        <dc:title />
      </cc:Work>
    </rdf:RDF>
  </metadata>
  <g
     style="display:none"
     id="layer3">
    <rect
       y="5.1527071"
       x="5.2611551"
       height="21.960417"
       width="35.189583"
       id="rect1030"
       style="fill:#000000;fill-opacity:1;stroke-width:0.26458332" />
  </g>
  <path
     inkscape:connector-curvature="0"
     style="fill:#000000;fill-opacity:1;stroke-width:0.08466666"
     d="M 18.172017,0 C 7.8979754,0 8.4223235,-0.02439329 7.9540364,0.47645669 7.5453824,0.9134967 7.5463092,0.89777841 7.5463092,6.4828083 v 5.2859827 h -0.503845 c -0.655267,0 -0.8814165,0.112107 -1.1808065,0.584977 -0.3169679,0.50063 -5.55386511,9.416684 -5.7226481,9.743074 -0.159386,0.30823 -0.19442479,9.720031 -0.0377238,10.134781 0.118985,0.314921 0.48338964,0.696836 0.79891764,0.837676 v 5.3e-4 c 0.33126596,0.147809 33.83148656,0.176686 34.22116756,0.02946 0.32435,-0.12255 0.70032,-0.487524 0.841293,-0.817005 0.09447,-0.220771 0.116271,-1.193315 0.116271,-5.127336 v -4.855013 l -1.233517,-2.196249 c -0.678481,-1.20802 -1.566965,-2.787049 -1.974556,-3.50883 -0.407591,-0.721789 -1.157102,-2.049704 -1.665531,-2.950724 -1.030952,-1.82694 -1.080042,-1.875337 -1.895493,-1.875337 H 28.797726 V 6.4828083 c 0,-5.58502989 0.0013,-5.5693116 -0.407212,-6.00635161 C 27.922225,-0.02435329 28.446058,0 18.172017,0 Z m 3.059762,3.624585 c 0.318758,0.010721 0.599228,0.3289662 1.086755,0.8981363 0.114972,0.13423 0.335954,0.3663408 0.490926,0.5157309 0.688538,0.6637398 0.867125,0.9916525 0.767912,1.4066324 -0.07122,0.2979099 -0.114794,0.3517968 -1.451074,1.7828368 l -1.179773,1.2634888 1.164786,1.2469528 c 1.877405,2.010339 1.880812,2.027214 0.676962,3.218924 -0.141433,0.14001 -0.368208,0.386384 -0.503845,0.547254 -0.608844,0.72214 -0.923482,0.917333 -1.309481,0.812353 -0.276867,-0.0753 -0.334514,-0.129553 -1.669149,-1.550293 l -1.18339,-1.259354 -1.160136,1.235066 c -0.638112,0.67945 -1.204953,1.271976 -1.259355,1.316716 -0.296715,0.24406 -0.548429,0.326102 -0.789616,0.256832 -0.250925,-0.0721 -0.468736,-0.260558 -0.964282,-0.832508 -0.134195,-0.15489 -0.371458,-0.404397 -0.527099,-0.554488 -0.672756,-0.64875 -0.852702,-0.980279 -0.754476,-1.391129 0.07118,-0.29774 0.1146,-0.351354 1.451591,-1.783354 L 15.298808,9.4908935 14.614612,8.7581215 C 14.238183,8.3552915 13.782732,7.881436 13.602787,7.704956 12.385204,6.5107859 12.351033,6.2044148 13.320634,5.1769449 c 0.219288,-0.2323701 0.501295,-0.5429272 0.626835,-0.6903972 0.978867,-1.14985 1.376756,-1.1351596 2.418457,0.0894 0.144459,0.1698199 0.598536,0.6665753 1.009241,1.1043253 l 0.746724,0.7958169 1.168404,-1.2433348 C 20.348768,4.1059779 20.821947,3.6108018 21.231779,3.624585 Z m 7.638292,10.09189 c 0.03977,0 0.550376,0.847496 1.134816,1.883606 0.584438,1.03611 1.578777,2.79844 2.209168,3.91604 l 1.146183,2.031917 -4.037997,0.04238 c -4.2885,0.04496 -4.1822,0.03386 -4.60437,0.479557 -0.34545,0.364731 -0.407211,0.627527 -0.407211,1.727027 v 1.010791 h -6.26525 -6.265768 v -1.010791 c 0,-1.0987 -0.06131,-1.360177 -0.40721,-1.730127 -0.446455,-0.4774 -0.436033,-0.476457 -4.6699989,-0.476457 -2.1435618,0 -3.8956191,-0.02866 -3.8938191,-0.06356 0.00688,-0.1354 4.5485136,-7.761589 4.6405437,-7.792289 0.07233,-0.02411 0.097151,0.702918 0.097151,2.811198 v 2.843237 H 18.172017 28.797726 v -2.836519 c 0,-1.55998 0.03255,-2.836003 0.07234,-2.836003 z"
     id="path890" />
  <g
     style="display:none"
     transform="translate(-0.03051241,-0.01187977)"
     id="layer1">
    <path
       transform="scale(0.26458333)"
       id="path931"
       d=""
       style="fill:#ffffff;stroke-width:0.00390625" />
    <g
       transform="translate(-87.634991,-71.224853)"
       id="g970">
      <path
         style="fill:#ffffff;stroke-width:0.08466666"
         d="m 88.565697,104.30626 c -0.315528,-0.14084 -0.679962,-0.52309 -0.798947,-0.83801 -0.156701,-0.41475 -0.121706,-9.826523 0.03768,-10.134753 0.168783,-0.32639 5.405527,-9.24225 5.722495,-9.74288 0.29939,-0.47287 0.525818,-0.58502 1.181085,-0.58502 h 0.504016 v -5.286161 c 0,-5.58503 -0.0011,-5.56906 0.407554,-6.0061 0.468287,-0.50085 -0.05593,-0.47641 10.21811,-0.47641 10.27404,0 9.74983,-0.0244 10.21812,0.47641 0.40863,0.43704 0.40755,0.42107 0.40755,6.0061 v 5.286161 h 0.51221 c 0.81545,0 0.86442,0.0485 1.89537,1.87544 0.50843,0.90102 1.2579,2.22877 1.66549,2.95056 0.40759,0.72178 1.29618,2.30071 1.97466,3.50873 l 1.2336,2.19639 v 4.85483 c 0,3.934023 -0.0221,4.906493 -0.11657,5.127263 -0.14097,0.32948 -0.51709,0.69485 -0.84144,0.8174 -0.38968,0.14723 -33.889721,0.11791 -34.220987,-0.0299 z m 23.410333,-9.272493 c 0,-1.0995 0.0621,-1.36256 0.40755,-1.72729 0.42217,-0.4457 0.31552,-0.43459 4.60402,-0.47955 l 4.03791,-0.0423 -1.14616,-2.032 c -0.63039,-1.1176 -1.62433,-2.87973 -2.20877,-3.91584 -0.58444,-1.03611 -1.09515,-1.88383 -1.13492,-1.88383 -0.0398,0 -0.0723,1.27635 -0.0723,2.83633 v 2.83634 H 105.83769 95.21203 v -2.84339 c 0,-2.10828 -0.02522,-2.83499 -0.09755,-2.81088 -0.09203,0.0307 -4.633681,7.6567 -4.64056,7.7921 -0.0018,0.0349 1.750598,0.0635 3.89416,0.0635 4.233966,0 4.223272,-10e-4 4.669727,0.4764 0.345896,0.36995 0.407554,0.63174 0.407554,1.73044 v 1.01049 h 6.265329 6.26534 z"
         id="path890-3" />
      <path
         style="fill:#ff0000;stroke-width:0.01572522"
         d="m 102.57896,86.552407 c -0.25092,-0.0721 -0.46914,-0.26034 -0.96468,-0.83229 -0.1342,-0.15489 -0.37134,-0.40441 -0.52698,-0.5545 -0.67275,-0.64875 -0.85262,-0.98048 -0.75439,-1.39133 0.0712,-0.29774 0.11464,-0.35112 1.45163,-1.78312 l 1.17991,-1.26376 -0.68441,-0.73241 c -0.37643,-0.40283 -0.83165,-0.87681 -1.01159,-1.05329 -1.21758,-1.19417 -1.25178,-1.50056 -0.28218,-2.52803 0.21929,-0.23237 0.50142,-0.54315 0.62696,-0.69062 0.97886,-1.14985 1.37643,-1.13516 2.41813,0.0894 0.14446,0.16982 0.59868,0.66691 1.00939,1.10466 l 0.74673,0.7959 1.1682,-1.24359 c 1.88173,-2.00316 1.91389,-2.0107 3.02824,-0.70974 0.11497,0.13423 0.33583,0.36628 0.49081,0.51567 0.68853,0.66374 0.8676,0.99152 0.76839,1.4065 -0.0712,0.29791 -0.11509,0.3518 -1.45137,1.78284 l -1.17982,1.26348 1.16467,1.24714 c 1.87741,2.01034 1.88094,2.02712 0.67709,3.21883 -0.14143,0.14001 -0.36813,0.38619 -0.50376,0.54706 -0.60885,0.72214 -0.92326,0.91719 -1.30926,0.81221 -0.27687,-0.0753 -0.33499,-0.12925 -1.66963,-1.54999 l -1.18327,-1.25962 -1.1602,1.23536 c -0.63812,0.67945 -1.20472,1.27198 -1.25912,1.31672 -0.29672,0.24406 -0.5483,0.32582 -0.78949,0.25655 z"
         id="path939-4" />
    </g>
  </g>
</svg>
