<?xml version="1.0" encoding="UTF-8" standalone="no"?>
<svg
   xmlns:dc="http://purl.org/dc/elements/1.1/"
   xmlns:cc="http://creativecommons.org/ns#"
   xmlns:rdf="http://www.w3.org/1999/02/22-rdf-syntax-ns#"
   xmlns:svg="http://www.w3.org/2000/svg"
   xmlns="http://www.w3.org/2000/svg"
   id="svg8"
   version="1.1"
   viewBox="0 0 36.079185 33.196274"
   height="33.196274mm"
   width="36.079185mm">
  <defs
     id="defs2" />
  <metadata
     id="metadata5">
    <rdf:RDF>
      <cc:Work
         rdf:about="">
        <dc:format>image/svg+xml</dc:format>
        <dc:type
           rdf:resource="http://purl.org/dc/dcmitype/StillImage" />
        <dc:title></dc:title>
      </cc:Work>
    </rdf:RDF>
  </metadata>
  <g
     style="display:inline"
     transform="translate(-0.03051241,-0.01187977)"
     id="layer1">
    <path
       transform="scale(0.26458333)"
       id="path931"
       d=""
       style="fill:#ffffff;stroke-width:0.00390625" />
    <g
       transform="translate(-87.634991,-71.224853)"
       id="g970">
      <path
         style="fill:#ffffff;stroke-width:0.08466666"
         d="m 88.565697,104.30626 c -0.315528,-0.14084 -0.679962,-0.52309 -0.798947,-0.83801 -0.156701,-0.41475 -0.121706,-9.826523 0.03768,-10.134753 0.168783,-0.32639 5.405527,-9.24225 5.722495,-9.74288 0.29939,-0.47287 0.525818,-0.58502 1.181085,-0.58502 h 0.504016 v -5.286161 c 0,-5.58503 -0.0011,-5.56906 0.407554,-6.0061 0.468287,-0.50085 -0.05593,-0.47641 10.21811,-0.47641 10.27404,0 9.74983,-0.0244 10.21812,0.47641 0.40863,0.43704 0.40755,0.42107 0.40755,6.0061 v 5.286161 h 0.51221 c 0.81545,0 0.86442,0.0485 1.89537,1.87544 0.50843,0.90102 1.2579,2.22877 1.66549,2.95056 0.40759,0.72178 1.29618,2.30071 1.97466,3.50873 l 1.2336,2.19639 v 4.85483 c 0,3.934023 -0.0221,4.906493 -0.11657,5.127263 -0.14097,0.32948 -0.51709,0.69485 -0.84144,0.8174 -0.38968,0.14723 -33.889721,0.11791 -34.220987,-0.0299 z m 23.410333,-9.272493 c 0,-1.0995 0.0621,-1.36256 0.40755,-1.72729 0.42217,-0.4457 0.31552,-0.43459 4.60402,-0.47955 l 4.03791,-0.0423 -1.14616,-2.032 c -0.63039,-1.1176 -1.62433,-2.87973 -2.20877,-3.91584 -0.58444,-1.03611 -1.09515,-1.88383 -1.13492,-1.88383 -0.0398,0 -0.0723,1.27635 -0.0723,2.83633 v 2.83634 H 105.83769 95.21203 v -2.84339 c 0,-2.10828 -0.02522,-2.83499 -0.09755,-2.81088 -0.09203,0.0307 -4.633681,7.6567 -4.64056,7.7921 -0.0018,0.0349 1.750598,0.0635 3.89416,0.0635 4.233966,0 4.223272,-10e-4 4.669727,0.4764 0.345896,0.36995 0.407554,0.63174 0.407554,1.73044 v 1.01049 h 6.265329 6.26534 z"
         id="path890-3" />
      <path
         style="fill:#ff0000;stroke-width:0.01572522"
         d="m 102.57896,86.552407 c -0.25092,-0.0721 -0.46914,-0.26034 -0.96468,-0.83229 -0.1342,-0.15489 -0.37134,-0.40441 -0.52698,-0.5545 -0.67275,-0.64875 -0.85262,-0.98048 -0.75439,-1.39133 0.0712,-0.29774 0.11464,-0.35112 1.45163,-1.78312 l 1.17991,-1.26376 -0.68441,-0.73241 c -0.37643,-0.40283 -0.83165,-0.87681 -1.01159,-1.05329 -1.21758,-1.19417 -1.25178,-1.50056 -0.28218,-2.52803 0.21929,-0.23237 0.50142,-0.54315 0.62696,-0.69062 0.97886,-1.14985 1.37643,-1.13516 2.41813,0.0894 0.14446,0.16982 0.59868,0.66691 1.00939,1.10466 l 0.74673,0.7959 1.1682,-1.24359 c 1.88173,-2.00316 1.91389,-2.0107 3.02824,-0.70974 0.11497,0.13423 0.33583,0.36628 0.49081,0.51567 0.68853,0.66374 0.8676,0.99152 0.76839,1.4065 -0.0712,0.29791 -0.11509,0.3518 -1.45137,1.78284 l -1.17982,1.26348 1.16467,1.24714 c 1.87741,2.01034 1.88094,2.02712 0.67709,3.21883 -0.14143,0.14001 -0.36813,0.38619 -0.50376,0.54706 -0.60885,0.72214 -0.92326,0.91719 -1.30926,0.81221 -0.27687,-0.0753 -0.33499,-0.12925 -1.66963,-1.54999 l -1.18327,-1.25962 -1.1602,1.23536 c -0.63812,0.67945 -1.20472,1.27198 -1.25912,1.31672 -0.29672,0.24406 -0.5483,0.32582 -0.78949,0.25655 z"
         id="path939-4" />
    </g>
  </g>
  <g
     style="display:none"
     id="layer2">
    <g
       transform="translate(-23.715669,-91.345363)"
       id="g943">
      <path
         style="fill:#000000;stroke-width:0.08466666"
         d="m 24.615863,124.41489 c -0.315528,-0.14084 -0.679962,-0.52309 -0.798947,-0.83801 -0.156701,-0.41475 -0.121706,-9.82652 0.03768,-10.13475 0.168783,-0.32639 5.405527,-9.24225 5.722495,-9.74288 0.29939,-0.47287 0.525818,-0.58502 1.181085,-0.58502 h 0.504016 v -5.286161 c 0,-5.58503 -0.0011,-5.56906 0.407554,-6.0061 0.468287,-0.50085 -0.05593,-0.47641 10.218112,-0.47641 10.27404,0 9.74983,-0.0244 10.21812,0.47641 0.40863,0.43704 0.40755,0.42107 0.40755,6.0061 v 5.286161 h 0.51221 c 0.81545,0 0.86442,0.0485 1.89537,1.87544 0.50843,0.90102 1.2579,2.22877 1.66549,2.95056 0.40759,0.72178 1.29618,2.30071 1.97466,3.50873 l 1.2336,2.19639 v 4.85483 c 0,3.93402 -0.0221,4.90649 -0.11657,5.12726 -0.14097,0.32948 -0.51709,0.69485 -0.84144,0.8174 -0.38968,0.14723 -33.889723,0.11791 -34.220989,-0.0299 z m 23.410335,-9.27249 c 0,-1.0995 0.0621,-1.36256 0.40755,-1.72729 0.42217,-0.4457 0.31552,-0.43459 4.60402,-0.47955 l 4.03791,-0.0423 -1.14616,-2.032 c -0.63039,-1.1176 -1.62433,-2.87973 -2.20877,-3.91584 -0.58444,-1.03611 -1.09515,-1.88383 -1.13492,-1.88383 -0.0398,0 -0.0723,1.27635 -0.0723,2.83633 v 2.83634 H 41.887858 31.262196 v -2.84339 c 0,-2.10828 -0.02522,-2.83499 -0.09755,-2.81088 -0.09203,0.0307 -4.633681,7.6567 -4.64056,7.7921 -0.0018,0.0349 1.750598,0.0635 3.89416,0.0635 4.233966,0 4.223272,-0.001 4.669727,0.4764 0.345896,0.36995 0.407554,0.63174 0.407554,1.73044 v 1.01049 h 6.265331 6.26534 z"
         id="path890" />
      <path
         style="fill:#ffffff;stroke-width:0.01572522"
         d="m 38.62913,106.66104 c -0.250926,-0.0721 -0.469142,-0.26034 -0.964688,-0.83229 -0.134195,-0.15489 -0.371333,-0.40441 -0.526974,-0.5545 -0.672756,-0.64875 -0.85262,-0.98048 -0.754394,-1.39133 0.07118,-0.29774 0.11464,-0.35112 1.451631,-1.78312 l 1.179915,-1.26376 -0.684415,-0.73241 c -0.376429,-0.40283 -0.831645,-0.87681 -1.01159,-1.05329 -1.217583,-1.19417 -1.251783,-1.50056 -0.282182,-2.52803 0.219288,-0.23237 0.50142,-0.54315 0.62696,-0.69062 0.978867,-1.14985 1.376429,-1.13516 2.41813,0.0894 0.144459,0.16982 0.598683,0.66691 1.009388,1.10466 l 0.746735,0.7959 1.168202,-1.24359 c 1.881729,-2.00316 1.913889,-2.0107 3.028237,-0.70974 0.114972,0.13423 0.335834,0.36628 0.490806,0.51567 0.688538,0.66374 0.867608,0.99152 0.768395,1.4065 -0.07122,0.29791 -0.115093,0.3518 -1.451373,1.78284 l -1.179818,1.26348 1.164675,1.24714 c 1.877405,2.01034 1.880934,2.02712 0.677084,3.21883 -0.141433,0.14001 -0.368126,0.38619 -0.503763,0.54706 -0.608843,0.72214 -0.923258,0.91719 -1.309257,0.81221 -0.276867,-0.0753 -0.334989,-0.12925 -1.669624,-1.54999 l -1.183275,-1.25962 -1.160204,1.23536 c -0.638112,0.67945 -1.204714,1.27198 -1.259116,1.31672 -0.296715,0.24406 -0.548298,0.32582 -0.789485,0.25655 z"
         id="path939" />
    </g>
  </g>
</svg>
