<?xml version="1.0" encoding="UTF-8" standalone="no"?>
<svg
   xmlns:dc="http://purl.org/dc/elements/1.1/"
   xmlns:cc="http://creativecommons.org/ns#"
   xmlns:rdf="http://www.w3.org/1999/02/22-rdf-syntax-ns#"
   xmlns:svg="http://www.w3.org/2000/svg"
   xmlns="http://www.w3.org/2000/svg"
   id="svg8"
   version="1.1"
   viewBox="0 0 36.079185 33.196274"
   height="33.196274mm"
   width="36.079185mm">
  <defs
     id="defs2" />
  <metadata
     id="metadata5">
    <rdf:RDF>
      <cc:Work
         rdf:about="">
        <dc:format>image/svg+xml</dc:format>
        <dc:type
           rdf:resource="http://purl.org/dc/dcmitype/StillImage" />
        <dc:title></dc:title>
      </cc:Work>
    </rdf:RDF>
  </metadata>
  <g
     style="display:none"
     id="layer3">
    <rect
       y="5.1527071"
       x="5.2611551"
       height="21.960417"
       width="35.189583"
       id="rect1030"
       style="fill:#000000;fill-opacity:1;stroke-width:0.26458332" />
  </g>
  <g
     style="display:inline"
     id="layer2">
    <path
       transform="scale(0.26458333)"
       id="path890"
       d="M 68.681641,0 C 29.850616,0 31.832404,-0.09219513 30.0625,1.8007812 28.517981,3.452586 28.521484,3.3931783 28.521484,24.501953 v 19.978516 h -1.904296 c -2.4766,0 -3.331338,0.423712 -4.462891,2.210937 -1.197989,1.892145 -20.9909864,35.590619 -21.62890638,36.824219 -0.60240378,1.164964 -0.73483387,36.737125 -0.14257812,38.304685 0.44970709,1.19025 1.8269845,2.63371 3.0195313,3.16602 v 0.002 c 1.2520289,0.55865 127.8670362,0.66779 129.3398462,0.11133 1.22589,-0.46318 2.64688,-1.84261 3.17969,-3.08789 0.35705,-0.83441 0.43945,-4.51017 0.43945,-19.37891 V 84.283203 l -4.66211,-8.300781 c -2.56434,-4.565745 -5.92239,-10.533731 -7.46289,-13.261719 -1.5405,-2.728025 -4.3733,-7.746914 -6.29492,-11.152344 -3.89651,-6.90497 -4.08205,-7.08789 -7.16407,-7.08789 H 108.8418 V 24.501953 c 0,-21.1087747 0.005,-21.049367 -1.53907,-22.7011718 C 105.53282,-0.09204395 107.51266,0 68.681641,0 Z m 11.564453,13.699219 c 1.204755,0.04052 2.264799,1.243337 4.107422,3.394531 0.434539,0.507326 1.269747,1.384595 1.855468,1.949219 2.602349,2.508623 3.277322,3.747978 2.902344,5.316406 -0.269178,1.125959 -0.433868,1.329626 -5.484375,6.738281 l -4.458984,4.775391 4.402343,4.712891 c 7.095704,7.598135 7.108579,7.661914 2.558594,12.166015 -0.53455,0.529172 -1.391653,1.460347 -1.904297,2.068359 -2.301139,2.729349 -3.490325,3.467088 -4.949218,3.070313 -1.046427,-0.284598 -1.264304,-0.489649 -6.308594,-5.859375 l -4.472656,-4.759766 -4.384766,4.667969 c -2.411762,2.568 -4.554152,4.807467 -4.759766,4.976563 -1.121442,0.922431 -2.072802,1.232511 -2.984375,0.970703 -0.948381,-0.272504 -1.771601,-0.984784 -3.644531,-3.146485 -0.507194,-0.585411 -1.403938,-1.528433 -1.992187,-2.095703 -2.5427,-2.451968 -3.222811,-3.704993 -2.851563,-5.257812 0.269027,-1.125317 0.433134,-1.327951 5.486328,-6.740235 l 4.458985,-4.77539 -2.585938,-2.769532 c -1.422724,-1.522507 -3.144112,-3.313457 -3.824219,-3.980468 -4.601888,-4.513399 -4.73104,-5.671337 -1.066406,-9.554688 0.828805,-0.878249 1.894659,-2.052008 2.369141,-2.609375 3.699655,-4.34589 5.203487,-4.290367 9.140625,0.337891 0.545987,0.641839 2.262182,2.51934 3.814453,4.173828 l 2.822266,3.007812 4.416015,-4.699218 c 4.000526,-4.258687 5.78892,-6.130219 7.337891,-6.078125 z m 28.869136,38.142578 c 0.15032,0 2.08016,3.203134 4.28907,7.119141 2.2089,3.916006 5.96703,10.576781 8.34961,14.800781 l 4.33203,7.679687 -15.26172,0.160156 c -16.208505,0.169928 -15.806742,0.127965 -17.402345,1.8125 -1.305638,1.378508 -1.539063,2.371754 -1.539063,6.527344 v 3.820313 H 68.203125 44.521484 v -3.820313 c 0,-4.152567 -0.231739,-5.140826 -1.539062,-6.539062 -1.687389,-1.804347 -1.648,-1.800782 -17.650391,-1.800782 -8.101651,0 -14.7236,-0.108328 -14.716797,-0.240234 0.026,-0.511748 17.191233,-29.33514 17.539063,-29.451172 0.273373,-0.09112 0.367187,2.656698 0.367187,10.625 V 73.28125 H 68.681641 108.8418 V 62.560547 c 0,-5.895988 0.12301,-10.71875 0.27343,-10.71875 z"
       style="fill:#000000;fill-opacity:1;stroke-width:0.31999999" />
    <rect
       y="-2.255626"
       x="-23.049263"
       height="28.574999"
       width="16.668749"
       id="rect1023"
       style="fill:none;fill-opacity:0;stroke-width:0.26458332" />
    <rect
       y="-2.5202093"
       x="-24.107595"
       height="32.014584"
       width="21.166666"
       id="rect1025"
       style="fill:#000000;fill-opacity:0;stroke-width:0.26458332" />
  </g>
  <g
     style="display:none"
     transform="translate(-0.03051241,-0.01187977)"
     id="layer1">
    <path
       transform="scale(0.26458333)"
       id="path931"
       d=""
       style="fill:#ffffff;stroke-width:0.00390625" />
    <g
       transform="translate(-87.634991,-71.224853)"
       id="g970">
      <path
         style="fill:#ffffff;stroke-width:0.08466666"
         d="m 88.565697,104.30626 c -0.315528,-0.14084 -0.679962,-0.52309 -0.798947,-0.83801 -0.156701,-0.41475 -0.121706,-9.826523 0.03768,-10.134753 0.168783,-0.32639 5.405527,-9.24225 5.722495,-9.74288 0.29939,-0.47287 0.525818,-0.58502 1.181085,-0.58502 h 0.504016 v -5.286161 c 0,-5.58503 -0.0011,-5.56906 0.407554,-6.0061 0.468287,-0.50085 -0.05593,-0.47641 10.21811,-0.47641 10.27404,0 9.74983,-0.0244 10.21812,0.47641 0.40863,0.43704 0.40755,0.42107 0.40755,6.0061 v 5.286161 h 0.51221 c 0.81545,0 0.86442,0.0485 1.89537,1.87544 0.50843,0.90102 1.2579,2.22877 1.66549,2.95056 0.40759,0.72178 1.29618,2.30071 1.97466,3.50873 l 1.2336,2.19639 v 4.85483 c 0,3.934023 -0.0221,4.906493 -0.11657,5.127263 -0.14097,0.32948 -0.51709,0.69485 -0.84144,0.8174 -0.38968,0.14723 -33.889721,0.11791 -34.220987,-0.0299 z m 23.410333,-9.272493 c 0,-1.0995 0.0621,-1.36256 0.40755,-1.72729 0.42217,-0.4457 0.31552,-0.43459 4.60402,-0.47955 l 4.03791,-0.0423 -1.14616,-2.032 c -0.63039,-1.1176 -1.62433,-2.87973 -2.20877,-3.91584 -0.58444,-1.03611 -1.09515,-1.88383 -1.13492,-1.88383 -0.0398,0 -0.0723,1.27635 -0.0723,2.83633 v 2.83634 H 105.83769 95.21203 v -2.84339 c 0,-2.10828 -0.02522,-2.83499 -0.09755,-2.81088 -0.09203,0.0307 -4.633681,7.6567 -4.64056,7.7921 -0.0018,0.0349 1.750598,0.0635 3.89416,0.0635 4.233966,0 4.223272,-10e-4 4.669727,0.4764 0.345896,0.36995 0.407554,0.63174 0.407554,1.73044 v 1.01049 h 6.265329 6.26534 z"
         id="path890-3" />
      <path
         style="fill:#ff0000;stroke-width:0.01572522"
         d="m 102.57896,86.552407 c -0.25092,-0.0721 -0.46914,-0.26034 -0.96468,-0.83229 -0.1342,-0.15489 -0.37134,-0.40441 -0.52698,-0.5545 -0.67275,-0.64875 -0.85262,-0.98048 -0.75439,-1.39133 0.0712,-0.29774 0.11464,-0.35112 1.45163,-1.78312 l 1.17991,-1.26376 -0.68441,-0.73241 c -0.37643,-0.40283 -0.83165,-0.87681 -1.01159,-1.05329 -1.21758,-1.19417 -1.25178,-1.50056 -0.28218,-2.52803 0.21929,-0.23237 0.50142,-0.54315 0.62696,-0.69062 0.97886,-1.14985 1.37643,-1.13516 2.41813,0.0894 0.14446,0.16982 0.59868,0.66691 1.00939,1.10466 l 0.74673,0.7959 1.1682,-1.24359 c 1.88173,-2.00316 1.91389,-2.0107 3.02824,-0.70974 0.11497,0.13423 0.33583,0.36628 0.49081,0.51567 0.68853,0.66374 0.8676,0.99152 0.76839,1.4065 -0.0712,0.29791 -0.11509,0.3518 -1.45137,1.78284 l -1.17982,1.26348 1.16467,1.24714 c 1.87741,2.01034 1.88094,2.02712 0.67709,3.21883 -0.14143,0.14001 -0.36813,0.38619 -0.50376,0.54706 -0.60885,0.72214 -0.92326,0.91719 -1.30926,0.81221 -0.27687,-0.0753 -0.33499,-0.12925 -1.66963,-1.54999 l -1.18327,-1.25962 -1.1602,1.23536 c -0.63812,0.67945 -1.20472,1.27198 -1.25912,1.31672 -0.29672,0.24406 -0.5483,0.32582 -0.78949,0.25655 z"
         id="path939-4" />
    </g>
  </g>
</svg>
